<?xml version="1.0" encoding="UTF-8" ?>
<!DOCTYPE svg PUBLIC "-//W3C//DTD SVG 1.1//EN" "http://www.w3.org/Graphics/SVG/1.1/DTD/svg11.dtd">
<svg width="500pt" height="500pt" viewBox="0 0 500 500" version="1.1" xmlns="http://www.w3.org/2000/svg">
<g id="#000000ff">
<path fill="#000000" opacity="1.00" d=" M 72.08 203.01 C 87.21 202.25 102.51 209.50 112.00 221.25 C 121.44 209.43 136.79 202.26 151.92 203.01 C 151.95 205.75 151.96 208.48 151.95 211.21 C 155.14 211.75 158.36 212.07 161.58 212.38 C 161.75 214.51 161.93 216.63 162.15 218.76 C 163.91 219.28 165.67 219.82 167.43 220.38 C 167.55 221.81 167.68 223.24 167.83 224.68 C 169.92 225.37 171.97 226.15 174.01 226.98 C 173.99 246.01 174.01 265.03 174.00 284.06 C 162.47 278.87 149.51 278.08 137.04 278.73 C 128.63 279.02 120.22 279.85 111.99 281.67 C 94.58 278.34 76.33 276.89 58.90 280.89 C 55.80 281.55 52.88 282.79 50.00 284.06 C 49.99 265.04 50.01 246.01 49.99 226.98 C 52.02 226.13 54.07 225.34 56.16 224.65 C 56.31 223.22 56.44 221.80 56.56 220.38 C 58.33 219.82 60.09 219.28 61.86 218.76 C 62.09 216.63 62.23 214.50 62.40 212.37 C 65.63 212.07 68.85 211.75 72.05 211.21 C 72.03 208.48 72.05 205.74 72.08 203.01 M 73.16 203.80 C 73.20 222.82 73.23 241.84 73.14 260.86 C 87.33 261.69 101.54 267.61 110.99 278.44 C 110.99 259.70 111.03 240.95 110.97 222.20 C 101.97 210.78 87.46 204.58 73.16 203.80 M 116.87 217.87 C 115.15 219.97 112.37 221.88 112.81 224.96 C 112.87 242.81 112.73 260.67 112.88 278.53 C 122.40 267.69 136.60 261.67 150.86 260.87 C 150.76 241.84 150.80 222.82 150.84 203.79 C 138.41 204.45 125.96 209.24 116.87 217.87 M 63.84 213.61 C 63.85 231.07 63.85 248.54 63.84 266.01 C 71.08 264.93 78.52 265.59 85.57 267.49 C 92.70 269.15 99.09 272.82 105.78 275.58 C 96.84 266.81 84.03 263.18 71.82 262.14 C 71.81 245.74 71.76 229.33 71.85 212.93 C 69.17 213.03 66.50 213.25 63.84 213.61 M 152.15 212.93 C 152.22 229.33 152.23 245.74 152.14 262.15 C 139.94 263.19 127.16 266.82 118.22 275.58 C 120.74 274.85 122.99 273.45 125.35 272.33 C 136.11 267.25 148.23 264.21 160.16 266.01 C 160.15 248.54 160.15 231.07 160.16 213.61 C 157.50 213.25 154.83 213.03 152.15 212.93 M 58.09 221.40 C 57.88 239.33 58.06 257.27 58.00 275.20 C 72.89 269.36 89.28 272.31 104.06 276.92 C 92.02 270.00 77.94 265.38 63.94 267.46 C 62.68 267.80 62.09 267.30 62.19 265.95 C 62.10 250.61 62.18 235.25 62.16 219.90 C 60.81 220.41 59.45 220.92 58.09 221.40 M 161.84 219.92 C 161.84 235.77 161.88 251.62 161.82 267.47 C 147.24 265.36 132.47 269.53 119.95 276.92 C 134.72 272.30 151.12 269.37 166.00 275.20 C 165.95 257.27 166.11 239.34 165.92 221.41 C 164.55 220.94 163.19 220.43 161.84 219.92 Z" />
<path fill="#000000" opacity="1.00" d=" M 197.01 209.02 C 201.33 209.03 205.66 209.03 209.99 209.02 C 210.01 230.34 210.00 251.67 210.00 273.00 C 205.66 273.01 201.33 273.01 197.00 272.99 C 197.00 251.67 196.99 230.34 197.01 209.02 Z" />
<path fill="#000000" opacity="1.00" d=" M 241.32 209.14 C 245.78 208.97 250.25 208.98 254.71 209.13 C 254.58 218.78 254.58 228.44 254.70 238.09 C 261.20 233.00 271.08 232.18 277.85 237.19 C 284.89 242.27 287.64 251.97 285.18 260.17 C 283.07 268.11 275.38 274.54 266.99 274.06 C 262.20 274.44 258.02 271.83 254.44 268.97 C 254.39 270.30 254.35 271.64 254.29 272.99 C 249.96 273.01 245.63 273.05 241.31 272.89 C 241.51 251.64 241.47 230.39 241.32 209.14 M 260.40 245.39 C 253.65 247.24 252.08 257.30 257.79 261.23 C 262.95 265.41 271.88 261.75 272.01 254.94 C 273.03 248.71 266.29 243.19 260.40 245.39 Z" />
<path fill="#000000" opacity="1.00" d=" M 224.48 211.53 C 228.70 210.55 233.28 213.99 233.73 218.26 C 234.47 223.03 229.80 227.61 225.08 226.99 C 220.94 226.48 217.62 222.36 218.22 218.20 C 218.57 214.92 221.29 212.20 224.48 211.53 Z" />
<path fill="#000000" opacity="1.00" d=" M 305.21 240.05 C 307.90 237.73 310.52 234.91 314.16 234.18 C 317.89 233.60 322.02 233.84 325.21 236.07 C 324.10 239.95 321.85 243.38 320.09 246.99 C 317.11 245.84 313.84 244.54 310.64 245.59 C 307.12 246.63 305.30 250.52 305.32 253.97 C 305.22 260.31 305.41 266.65 305.26 272.99 C 300.86 273.01 296.47 273.01 292.07 272.99 C 292.17 260.33 292.17 247.67 292.07 235.02 C 296.47 234.99 300.87 234.99 305.27 235.01 C 305.26 236.69 305.23 238.37 305.21 240.05 Z" />
<path fill="#000000" opacity="1.00" d=" M 334.97 236.90 C 341.83 232.15 351.50 233.16 357.96 238.16 C 357.98 237.37 358.02 235.80 358.04 235.01 C 362.35 234.99 366.67 234.99 370.99 235.00 C 371.01 247.66 371.00 260.33 370.99 272.99 C 366.67 273.01 362.34 273.00 358.02 273.00 C 358.00 271.62 358.00 270.24 358.00 268.87 C 354.43 272.04 349.90 274.47 344.99 274.06 C 335.59 274.40 327.43 266.15 326.68 257.00 C 325.58 249.45 328.52 241.24 334.97 236.90 M 346.41 245.45 C 338.91 247.45 338.34 259.68 345.69 262.24 C 351.21 264.97 358.71 260.31 358.07 254.00 C 358.66 248.04 351.87 243.27 346.41 245.45 Z" />
<path fill="#000000" opacity="1.00" d=" M 393.01 240.20 C 396.57 236.35 401.40 232.82 406.98 234.11 C 413.40 235.59 420.00 234.69 426.51 235.19 C 429.67 241.69 433.25 247.97 436.74 254.28 C 440.19 248.06 442.31 241.04 446.16 235.11 C 451.08 234.78 456.02 235.09 460.95 235.00 C 451.34 253.41 441.72 271.81 432.16 290.25 C 431.84 290.72 431.20 291.67 430.87 292.14 C 425.93 292.51 420.96 292.23 416.01 292.21 C 420.32 283.80 424.68 275.42 429.08 267.06 C 423.54 257.30 418.11 247.48 412.58 237.71 C 410.90 240.73 409.37 243.83 407.86 246.94 C 404.68 245.76 401.08 244.35 397.76 245.82 C 394.56 247.10 393.05 250.70 393.02 253.96 C 392.90 260.30 393.06 266.65 393.00 272.99 C 388.66 273.01 384.33 273.01 380.00 272.99 C 380.00 260.33 379.99 247.67 380.01 235.01 C 384.33 234.99 388.66 234.99 392.99 235.01 C 392.99 236.73 392.99 238.46 393.01 240.20 Z" />
<path fill="#000000" opacity="1.00" d=" M 219.08 235.01 C 223.47 234.99 227.86 234.99 232.26 235.00 C 232.34 247.67 232.33 260.33 232.26 273.00 C 227.86 273.01 223.47 273.01 219.08 272.99 C 219.18 260.33 219.18 247.67 219.08 235.01 Z" />
</g>
<g id="#ffffffff">
<path fill="#ffffff" opacity="1.00" d=" M 73.16 203.80 C 87.46 204.58 101.97 210.78 110.97 222.20 C 111.03 240.95 110.99 259.70 110.99 278.44 C 101.54 267.61 87.33 261.69 73.14 260.86 C 73.23 241.84 73.20 222.82 73.16 203.80 Z" />
<path fill="#ffffff" opacity="1.00" d=" M 116.87 217.87 C 125.96 209.24 138.41 204.45 150.84 203.79 C 150.80 222.82 150.76 241.84 150.86 260.87 C 136.60 261.67 122.40 267.69 112.88 278.53 C 112.73 260.67 112.87 242.81 112.81 224.96 C 112.37 221.88 115.15 219.97 116.87 217.87 Z" />
<path fill="#ffffff" opacity="1.00" d=" M 63.84 213.61 C 66.50 213.25 69.17 213.03 71.85 212.93 C 71.76 229.33 71.81 245.74 71.82 262.14 C 84.03 263.18 96.84 266.81 105.78 275.58 C 99.09 272.82 92.70 269.15 85.57 267.49 C 78.52 265.59 71.08 264.93 63.84 266.01 C 63.85 248.54 63.85 231.07 63.84 213.61 Z" />
<path fill="#ffffff" opacity="1.00" d=" M 152.15 212.93 C 154.83 213.03 157.50 213.25 160.16 213.61 C 160.15 231.07 160.15 248.54 160.16 266.01 C 148.23 264.21 136.11 267.25 125.35 272.33 C 122.99 273.45 120.74 274.85 118.22 275.58 C 127.16 266.82 139.94 263.19 152.14 262.15 C 152.23 245.74 152.22 229.33 152.15 212.93 Z" />
<path fill="#ffffff" opacity="1.00" d=" M 58.09 221.40 C 59.45 220.92 60.81 220.41 62.16 219.90 C 62.18 235.25 62.10 250.61 62.19 265.95 C 62.09 267.30 62.68 267.80 63.94 267.46 C 77.94 265.38 92.02 270.00 104.06 276.92 C 89.28 272.31 72.89 269.36 58.00 275.20 C 58.06 257.27 57.88 239.33 58.09 221.40 Z" />
<path fill="#ffffff" opacity="1.00" d=" M 161.84 219.92 C 163.19 220.43 164.55 220.94 165.92 221.41 C 166.11 239.34 165.95 257.27 166.00 275.20 C 151.12 269.37 134.72 272.30 119.95 276.92 C 132.47 269.53 147.24 265.36 161.82 267.47 C 161.88 251.62 161.84 235.77 161.84 219.92 Z" />
</g>
</svg>
