<svg xmlns="http://www.w3.org/2000/svg" xmlns:xlink="http://www.w3.org/1999/xlink" width="1080" zoomAndPan="magnify" viewBox="0 0 810 809.999993" height="1080" preserveAspectRatio="xMidYMid meet" version="1.0"><path fill="#000000" d="M 198.679688 186.195312 C 274.636719 182.378906 351.453125 218.777344 399.097656 277.769531 C 446.488281 218.425781 523.554688 182.429688 599.515625 186.195312 C 599.664062 199.953125 599.714844 213.65625 599.664062 227.363281 C 615.679688 230.074219 631.847656 231.679688 648.011719 233.238281 C 648.867188 243.929688 649.769531 254.574219 650.875 265.269531 C 659.710938 267.878906 668.546875 270.589844 677.382812 273.402344 C 677.984375 280.582031 678.636719 287.761719 679.390625 294.988281 C 689.882812 298.453125 700.175781 302.371094 710.417969 306.535156 C 710.316406 402.078125 710.417969 497.566406 710.367188 593.105469 C 652.480469 567.050781 587.414062 563.085938 524.808594 566.347656 C 482.585938 567.804688 440.363281 571.96875 399.046875 581.109375 C 311.640625 564.390625 220.015625 557.109375 132.507812 577.191406 C 116.945312 580.503906 102.285156 586.730469 87.824219 593.105469 C 87.773438 497.617188 87.875 402.078125 87.773438 306.535156 C 97.964844 302.269531 108.257812 298.304688 118.75 294.839844 C 119.503906 287.660156 120.15625 280.53125 120.761719 273.402344 C 129.644531 270.589844 138.480469 267.878906 147.367188 265.269531 C 148.523438 254.574219 149.226562 243.878906 150.078125 233.1875 C 166.296875 231.679688 182.460938 230.074219 198.527344 227.363281 C 198.425781 213.65625 198.527344 199.902344 198.679688 186.195312 M 204.101562 190.160156 C 204.300781 285.652344 204.453125 381.140625 204 476.632812 C 275.242188 480.796875 346.582031 510.519531 394.027344 564.890625 C 394.027344 470.808594 394.226562 376.671875 393.925781 282.539062 C 348.742188 225.203125 275.894531 194.078125 204.101562 190.160156 M 423.546875 260.800781 C 414.910156 271.34375 400.953125 280.933594 403.164062 296.394531 C 403.464844 386.011719 402.761719 475.675781 403.515625 565.34375 C 451.308594 510.921875 522.601562 480.699219 594.191406 476.679688 C 593.691406 381.140625 593.890625 285.652344 594.09375 190.109375 C 531.6875 193.425781 469.183594 217.472656 423.546875 260.800781 M 157.308594 239.414062 C 157.359375 327.070312 157.359375 414.777344 157.308594 502.488281 C 193.65625 497.066406 231.011719 500.378906 266.40625 509.917969 C 302.199219 518.25 334.28125 536.675781 367.867188 550.53125 C 322.984375 506.503906 258.671875 488.277344 197.371094 483.058594 C 197.324219 400.722656 197.070312 318.335938 197.523438 236 C 184.066406 236.5 170.664062 237.605469 157.308594 239.414062 M 600.667969 236 C 601.019531 318.335938 601.070312 400.722656 600.621094 483.109375 C 539.367188 488.328125 475.207031 506.554688 430.324219 550.53125 C 442.976562 546.867188 454.273438 539.839844 466.121094 534.214844 C 520.140625 508.710938 580.988281 493.449219 640.882812 502.488281 C 640.832031 414.777344 640.832031 327.070312 640.882812 239.414062 C 627.527344 237.605469 614.125 236.5 600.667969 236 M 128.441406 278.523438 C 127.386719 368.539062 128.289062 458.609375 127.988281 548.625 C 202.746094 519.304688 285.03125 534.117188 359.234375 557.261719 C 298.785156 522.519531 228.097656 499.324219 157.8125 509.765625 C 151.484375 511.472656 148.523438 508.964844 149.023438 502.1875 C 148.574219 425.171875 148.976562 348.054688 148.875 270.992188 C 142.097656 273.550781 135.269531 276.113281 128.441406 278.523438 M 649.316406 271.09375 C 649.316406 350.667969 649.519531 430.242188 649.21875 509.816406 C 576.019531 499.222656 501.867188 520.160156 439.007812 557.261719 C 513.160156 534.066406 595.5 519.355469 670.203125 548.625 C 669.953125 458.609375 670.753906 368.589844 669.800781 278.574219 C 662.921875 276.210938 656.097656 273.652344 649.316406 271.09375 Z M 649.316406 271.09375 " fill-opacity="1" fill-rule="nonzero"/><path fill="#ffffff" d="M 204.101562 190.160156 C 275.894531 194.078125 348.742188 225.203125 393.925781 282.539062 C 394.226562 376.671875 394.027344 470.808594 394.027344 564.890625 C 346.582031 510.519531 275.242188 480.796875 204 476.632812 C 204.453125 381.140625 204.300781 285.652344 204.101562 190.160156 Z M 204.101562 190.160156 " fill-opacity="1" fill-rule="nonzero"/><path fill="#ffffff" d="M 423.546875 260.800781 C 469.183594 217.472656 531.6875 193.425781 594.09375 190.109375 C 593.890625 285.652344 593.691406 381.140625 594.191406 476.679688 C 522.601562 480.699219 451.308594 510.921875 403.515625 565.34375 C 402.761719 475.675781 403.464844 386.011719 403.164062 296.394531 C 400.953125 280.933594 414.910156 271.34375 423.546875 260.800781 Z M 423.546875 260.800781 " fill-opacity="1" fill-rule="nonzero"/><path fill="#ffffff" d="M 157.308594 239.414062 C 170.664062 237.605469 184.066406 236.5 197.523438 236 C 197.070312 318.335938 197.324219 400.722656 197.371094 483.058594 C 258.671875 488.277344 322.984375 506.503906 367.867188 550.53125 C 334.28125 536.675781 302.199219 518.25 266.40625 509.917969 C 231.011719 500.378906 193.65625 497.066406 157.308594 502.488281 C 157.359375 414.777344 157.359375 327.070312 157.308594 239.414062 Z M 157.308594 239.414062 " fill-opacity="1" fill-rule="nonzero"/><path fill="#ffffff" d="M 600.667969 236 C 614.125 236.5 627.527344 237.605469 640.882812 239.414062 C 640.832031 327.070312 640.832031 414.777344 640.882812 502.488281 C 580.988281 493.449219 520.140625 508.710938 466.121094 534.214844 C 454.273438 539.839844 442.976562 546.867188 430.324219 550.53125 C 475.207031 506.554688 539.367188 488.328125 600.621094 483.109375 C 601.070312 400.722656 601.019531 318.335938 600.667969 236 Z M 600.667969 236 " fill-opacity="1" fill-rule="nonzero"/><path fill="#ffffff" d="M 128.441406 278.523438 C 135.269531 276.113281 142.097656 273.550781 148.875 270.992188 C 148.976562 348.054688 148.574219 425.171875 149.023438 502.1875 C 148.523438 508.964844 151.484375 511.472656 157.8125 509.765625 C 228.097656 499.324219 298.785156 522.519531 359.234375 557.261719 C 285.03125 534.117188 202.746094 519.304688 127.988281 548.625 C 128.289062 458.609375 127.386719 368.539062 128.441406 278.523438 Z M 128.441406 278.523438 " fill-opacity="1" fill-rule="nonzero"/><path fill="#ffffff" d="M 649.316406 271.09375 C 656.097656 273.652344 662.921875 276.210938 669.800781 278.574219 C 670.753906 368.589844 669.953125 458.609375 670.203125 548.625 C 595.5 519.355469 513.160156 534.066406 439.007812 557.261719 C 501.867188 520.160156 576.019531 499.222656 649.21875 509.816406 C 649.519531 430.242188 649.316406 350.667969 649.316406 271.09375 Z M 649.316406 271.09375 " fill-opacity="1" fill-rule="nonzero"/></svg>