<svg version="1.2" xmlns="http://www.w3.org/2000/svg" viewBox="0 0 1000 1000" width="1000" height="1000">
	<title>25736243_7098389-ai</title>
	<style>
		tspan { white-space:pre } 
		.s0 { fill: #6562e8 } 
		.s1 { fill: #4646d3 } 
		.s2 { fill: #fdf2dc } 
		.s3 { fill: #2c2cc6 } 
		.s4 { fill: #dbcdb0 } 
		.s5 { opacity: .5;fill: #cabd9a } 
		.s6 { opacity: .5;fill: #b2a383 } 
		.s7 { fill: #ffce55 } 
		.s8 { fill: #ffb229 } 
		.s9 { fill: #239b8c } 
		.s10 { fill: #1e7068 } 
		.s11 { fill: #155951 } 
		.s12 { fill: #ff5850 } 
		.s13 { fill: #ed482e } 
		.s14 { fill: #bc422e } 
	</style>
	<g id="OBJECT">
		<g id="&lt;Group&gt;">
			<text id="مكتبة زاد" style="transform: matrix(2,0,0,2,163.981,666.643)" >
			</text>
			<g id="&lt;Group&gt;">
				<g id="&lt;Group&gt;">
					<g id="&lt;Group&gt;">
						<path id="&lt;Path&gt;" class="s0" d="m673.4 382.8l-150.5 150.5c-11.7 11.7-30.6 11.7-42.3 0l-40.7-40.7c-13-12.9-13-33.9 0-46.8l148.2-148.2c6.3-6.4 16.6-6.4 22.9 0l35.2 35.2-2.4 2.7c0 0 2.5 9.1 9.9 16.1 9.1 8.6 15.4 9.4 15.4 9.4l2.9-2.4 1.4 1.3c6.3 6.4 6.3 16.6 0 22.9z"/>
						<path id="&lt;Path&gt;" class="s1" d="m465.8 485.2l-31.7-31.7c-6.7 12.5-4.8 28.5 5.8 39.1l32.6 32.6 8.1 8.1c11.7 11.7 30.6 11.7 42.3 0l150.5-150.5c6.3-6.3 6.3-16.5 0-22.9l-1.6-1.5-2.6 2.8c0 0-7-1.2-15.6-9.9-8.1-8.3-9.8-15.9-9.8-15.9l2.5-2.4-5.7-5.8-158 158c-4.6 4.6-12.1 4.6-16.8 0z"/>
						<path id="&lt;Path&gt;" class="s2" d="m489.3 489.5c-7.1 7.1-7.1 18.6 0 25.7 7.1 7 18.6 7 25.6 0l154.3-154c0 0-7.6-1.7-15.7-9.8-7.7-7.7-9.9-15.8-9.9-15.8z"/>
						<path id="&lt;Path&gt;" class="s3" d="m522.9 533.3l150.5-150.5c2.3-2.2 3.7-5 4.3-8l-160 159.1c-13.9 11.7-37.1-0.6-37.1-0.6 11.7 11.7 30.6 11.7 42.3 0z"/>
						<path id="&lt;Path&gt;" class="s4" d="m493.8 518.5q0 0 0 0 0 0 0 0z"/>
						<path id="&lt;Path&gt;" class="s4" d="m491.7 517.1q-0.2-0.1-0.4-0.3 0.2 0.2 0.4 0.3z"/>
						<path id="&lt;Path&gt;" class="s2" d="m493.8 518.5q-1.1-0.6-2.1-1.4 1 0.8 2.1 1.4z"/>
						<path id="&lt;Path&gt;" class="s2" d="m491.3 516.8q-1.1-0.7-2-1.6 0.9 0.9 2 1.6z"/>
						<path id="&lt;Path&gt;" class="s5" d="m653.7 351.4c-7.7-7.7-9.9-16-9.9-16l-154.5 154.1c-7.1 7.1-7.1 18.6 0 25.7q0.9 0.9 2 1.6 0.2 0.2 0.4 0.3 1 0.8 2.1 1.4 0 0 0 0l163.6-163.6c-1.2-1-2.4-2.2-3.7-3.5z"/>
						<path id="&lt;Path&gt;" class="s6" d="m489.5 496.6q0.3 0.3 0.7 0.3 0.4 0 0.7-0.3l155.2-155.2q-0.5-1-0.9-1.8l-155.7 155.6c-0.4 0.4-0.4 1 0 1.4z"/>
						<path id="&lt;Path&gt;" class="s6" d="m487.7 505.4q0.4 0.3 0.8 0.3 0.3 0 0.7-0.3l159.6-159.6q-0.6-0.8-1.1-1.7l-160 159.9c-0.3 0.4-0.3 1.1 0 1.4z"/>
						<path id="&lt;Path&gt;" class="s6" d="m496.9 503.9q0.3 0.3 0.7 0.3 0.4 0 0.7-0.3l153.9-153.9q-0.7-0.7-1.3-1.5l-154 154c-0.4 0.4-0.4 1 0 1.4z"/>
						<path id="&lt;Path&gt;" class="s6" d="m494.8 513.3q0.3 0.3 0.7 0.3 0.4 0 0.7-0.3l159.7-159.8q-0.8-0.6-1.5-1.3l-159.6 159.7c-0.4 0.4-0.4 1.1 0 1.4z"/>
						<path id="&lt;Path&gt;" class="s6" d="m504.9 511.9q0.3 0.3 0.7 0.3 0.4 0 0.7-0.3l154-154.9q-0.8-0.6-1.6-1.2l-153.8 154.7c-0.4 0.4-0.4 1.1 0 1.4z"/>
						<path id="&lt;Path&gt;" class="s6" d="m508.4 514c-0.4 0.4-0.4 1 0 1.4q0.3 0.3 0.7 0.3 0.4 0 0.7-0.3l155.6-155.6q-0.9-0.4-1.9-0.9z"/>
					</g>
					<g id="&lt;Group&gt;">
						<path id="&lt;Path&gt;" class="s7" d="m529 473c0 0-5.8 5.9-11.4 11.5-5.4 5.5-10.6 10.8-10.4 10.8l38.3 38.3 1.8-19.4v-0.5l20.1-2.3z"/>
						<path id="&lt;Path&gt;" class="s8" d="m507.2 495.3l38.3 38.3 1.8-19.4-29.7-29.7c-5.4 5.5-10.6 10.8-10.4 10.8z"/>
					</g>
				</g>
				<g id="&lt;Group&gt;">
					<path id="&lt;Path&gt;" class="s9" d="m558.1 398.1l-85.9 85.9c-11.7 11.7-30.7 11.7-42.4 0l-40.7-40.7c-12.9-12.9-12.9-33.9 0-46.8l83.7-83.7c6.4-6.3 16.6-6.3 22.9 0l35.3 35.2-2.5 2.7c0 0 2.6 9.1 10 16.1 9 8.6 15.3 9.4 15.3 9.4l2.9-2.4 1.4 1.4c6.3 6.3 6.3 16.5 0 22.9z"/>
					<path id="&lt;Path&gt;" class="s10" d="m415.1 435.9l-31.7-31.7c-6.8 12.6-4.9 28.5 5.7 39.1l32.6 32.6 8.1 8.1c11.7 11.7 30.7 11.7 42.4 0l85.9-85.9c6.3-6.4 6.3-16.6 0-22.9l-1.5-1.5-2.6 2.7c0 0-7-1.2-15.6-9.9-8.2-8.2-9.9-15.9-9.9-15.9l2.5-2.4-5.6-5.8-93.5 93.5c-4.7 4.7-12.2 4.7-16.8 0z"/>
					<path id="&lt;Path&gt;" class="s2" d="m438.5 440.3c-7 7-7 18.5 0 25.6 7.1 7.1 18.6 7.1 25.7 0l89.8-89.5c0 0-7.6-1.7-15.7-9.8-7.7-7.7-10-15.8-10-15.8z"/>
					<path id="&lt;Path&gt;" class="s11" d="m472.2 484l85.9-85.9c2.3-2.3 3.7-5.1 4.4-8l-95.5 94.5c-14 11.7-37.2-0.6-37.2-0.6 11.7 11.7 30.7 11.7 42.4 0z"/>
					<path id="&lt;Path&gt;" class="s4" d="m443.1 469.2q0 0 0 0 0 0 0 0z"/>
					<path id="&lt;Path&gt;" class="s4" d="m440.9 467.9q-0.2-0.2-0.4-0.3 0.2 0.1 0.4 0.3z"/>
					<path id="&lt;Path&gt;" class="s2" d="m443.1 469.2q-1.1-0.6-2.2-1.3 1.1 0.7 2.2 1.3z"/>
					<path id="&lt;Path&gt;" class="s2" d="m440.5 467.6q-1-0.8-2-1.7 1 0.9 2 1.7z"/>
					<path id="&lt;Path&gt;" class="s5" d="m538.4 366.6c-7.7-7.7-9.8-16-9.8-16l-90.1 89.7c-7 7-7 18.5 0 25.6q1 0.9 2 1.7 0.2 0.1 0.4 0.3 1.1 0.7 2.2 1.3 0 0 0 0l99.1-99.1c-1.3-1-2.4-2.2-3.8-3.5z"/>
					<path id="&lt;Path&gt;" class="s6" d="m438.8 447.3q0.3 0.3 0.7 0.3 0.4 0 0.7-0.3l90.7-90.6q-0.6-1-1-1.9l-91.1 91.1c-0.4 0.4-0.4 1 0 1.4z"/>
					<path id="&lt;Path&gt;" class="s6" d="m437 456.2q0.3 0.3 0.7 0.3 0.4 0 0.7-0.3l95.2-95.1q-0.6-0.9-1.1-1.7l-95.5 95.4c-0.4 0.4-0.4 1 0 1.4z"/>
					<path id="&lt;Path&gt;" class="s6" d="m446.1 454.7q0.3 0.3 0.7 0.3 0.4 0 0.7-0.3l89.5-89.5q-0.7-0.7-1.4-1.5l-89.5 89.6c-0.4 0.4-0.4 1 0 1.4z"/>
					<path id="&lt;Path&gt;" class="s6" d="m444 464.1q0.3 0.3 0.7 0.3 0.4 0 0.8-0.3l95.1-95.3q-0.7-0.7-1.5-1.4l-95.1 95.3c-0.4 0.4-0.4 1 0 1.4z"/>
					<path id="&lt;Path&gt;" class="s6" d="m454.1 462.7q0.3 0.3 0.7 0.3 0.4 0 0.7-0.3l89.6-90.5q-0.8-0.5-1.7-1.2l-89.3 90.3c-0.4 0.4-0.4 1 0 1.4z"/>
					<path id="&lt;Path&gt;" class="s6" d="m457.6 464.7c-0.4 0.4-0.4 1.1 0 1.5q0.3 0.2 0.7 0.2 0.4 0 0.7-0.2l91.1-91.2q-0.8-0.4-1.9-0.9z"/>
				</g>
				<g id="&lt;Group&gt;">
					<path id="&lt;Path&gt;" class="s12" d="m487 326.9l-86 86c-11.7 11.7-30.6 11.7-42.3 0l-40.7-40.7c-13-13-13-33.9 0-46.8l83.7-83.8c6.3-6.3 16.6-6.3 22.9 0l35.2 35.2-2.4 2.8c0 0 2.5 9.1 9.9 16.1 9.1 8.5 15.4 9.4 15.4 9.4l2.9-2.5 1.4 1.4c6.3 6.3 6.3 16.6 0 22.9z"/>
					<path id="&lt;Path&gt;" class="s13" d="m343.9 364.8l-31.7-31.7c-6.7 12.5-4.8 28.5 5.8 39.1l32.5 32.5 8.2 8.2c11.7 11.7 30.6 11.7 42.3 0l86-86c6.3-6.3 6.3-16.6 0-22.9l-1.6-1.5-2.6 2.8c0 0-7-1.3-15.6-9.9-8.2-8.3-9.8-15.9-9.8-15.9l2.5-2.5-5.7-5.7-93.5 93.5c-4.6 4.6-12.1 4.6-16.8 0z"/>
					<path id="&lt;Path&gt;" class="s2" d="m367.4 369.1c-7.1 7.1-7.1 18.6 0 25.6 7.1 7.1 18.5 7.1 25.6 0l89.8-89.4c0 0-7.6-1.7-15.7-9.8-7.7-7.7-9.9-15.8-9.9-15.8z"/>
					<path id="&lt;Path&gt;" class="s14" d="m401 412.9l86-86c2.3-2.3 3.7-5.1 4.3-8l-95.5 94.6c-13.9 11.7-37.1-0.6-37.1-0.6 11.7 11.7 30.6 11.7 42.3 0z"/>
					<path id="&lt;Path&gt;" class="s4" d="m371.9 398q0 0 0 0 0 0 0 0z"/>
					<path id="&lt;Path&gt;" class="s4" d="m369.7 396.7q-0.2-0.1-0.3-0.3 0.1 0.2 0.3 0.3z"/>
					<path id="&lt;Path&gt;" class="s2" d="m371.9 398q-1.1-0.5-2.2-1.3 1.1 0.8 2.2 1.3z"/>
					<path id="&lt;Path&gt;" class="s2" d="m369.4 396.4q-1.1-0.7-2-1.7 0.9 1 2 1.7z"/>
					<path id="&lt;Path&gt;" class="s5" d="m467.3 295.5c-7.7-7.7-9.9-16.1-9.9-16.1l-90 89.7c-7.1 7.1-7.1 18.6 0 25.6q0.9 1 2 1.7 0.1 0.2 0.3 0.3 1.1 0.8 2.2 1.3 0 0 0 0l99.1-99.1c-1.2-1-2.4-2.1-3.7-3.4z"/>
					<path id="&lt;Path&gt;" class="s6" d="m367.6 376.2q0.3 0.3 0.7 0.3 0.4 0 0.7-0.3l90.7-90.7q-0.5-1-1-1.9l-91.1 91.2c-0.4 0.4-0.4 1 0 1.4z"/>
					<path id="&lt;Path&gt;" class="s6" d="m365.8 385q0.3 0.3 0.7 0.3 0.4 0 0.7-0.3l95.2-95.1q-0.6-0.9-1.1-1.7l-95.5 95.4c-0.4 0.4-0.4 1 0 1.4z"/>
					<path id="&lt;Path&gt;" class="s6" d="m375 383.5q0.3 0.3 0.7 0.3 0.4 0 0.7-0.3l89.4-89.4q-0.7-0.8-1.3-1.5l-89.5 89.5c-0.4 0.4-0.4 1 0 1.4z"/>
					<path id="&lt;Path&gt;" class="s6" d="m372.9 392.9q0.3 0.3 0.7 0.3 0.4 0 0.7-0.3l95.2-95.3q-0.8-0.6-1.5-1.3l-95.1 95.2c-0.4 0.4-0.4 1 0 1.4z"/>
					<path id="&lt;Path&gt;" class="s6" d="m383 391.5q0.3 0.3 0.7 0.3 0.4 0 0.7-0.3l89.5-90.5q-0.8-0.5-1.6-1.1l-89.3 90.2c-0.4 0.4-0.4 1 0 1.4z"/>
					<path id="&lt;Path&gt;" class="s6" d="m386.4 393.6c-0.4 0.4-0.4 1 0 1.4q0.3 0.3 0.7 0.3 0.4 0 0.8-0.3l91.1-91.1q-0.9-0.4-1.9-1z"/>
				</g>
			</g>
		</g>
	</g>
</svg>