<svg version="1.2" xmlns="http://www.w3.org/2000/svg" viewBox="0 0 750 500" width="750" height="500"><defs><linearGradient id="P" gradientUnits="userSpaceOnUse"/><linearGradient id="g1" x2="1" href="#P" gradientTransform="matrix(1.997,0,0,1.332,9.594,20.68)"><stop stop-color="#79dd6f"/><stop offset="1" stop-color="#4dbce2"/></linearGradient><linearGradient id="g2" x2="1" href="#P" gradientTransform="matrix(2,0,0,1.333,943.203,55.745)"><stop stop-color="#1cb9a9"/><stop offset=".01" stop-color="#1cb9a9"/><stop offset="1" stop-color="#fff"/></linearGradient></defs><style>.a{fill:url(#g1)}.b{opacity:.2;fill:none;stroke:#fff;stroke-miterlimit:10}</style><path class="a" d="m0-0.3h750v500h-750z"/><rect width="750" height="500" style="fill:url(#g2)"/><g style="opacity:.5"><path class="b" d="m124.4 50.9l100-51 99.9 51v102.1l-99.9 51-100-51z"/><path class="b" d="m124.4 110.5l100-51 99.9 51v102.1l-99.9 51-100-51z"/><path class="b" d="m124.4 169.6l100-51 99.9 51v102l-99.9 51-100-51z"/><path class="b" d="m124.4 228.7l100-51.1 99.9 51.1v102l-99.9 51-100-51z"/><path class="b" d="m124.4 287.7l100-51 99.9 51v102.1l-99.9 51-100-51z"/><path class="b" d="m124.4 346.8l100-51 99.9 51v102l-99.9 51.1-100-51.1z"/></g><g style="opacity:.5"><path class="b" d="m0 50.9l99.9-51 100 51v102.1l-100 51-99.9-51z"/><path class="b" d="m0 110.5l99.9-51 100 51v102.1l-100 51-99.9-51z"/><path class="b" d="m0 169.6l99.9-51 100 51v102l-100 51-99.9-51z"/><path class="b" d="m0 228.7l99.9-51.1 100 51.1v102l-100 51-99.9-51z"/><path class="b" d="m0 287.7l99.9-51 100 51v102.1l-100 51-99.9-51z"/><path class="b" d="m0 346.8l99.9-51 100 51v102l-100 51.1-99.9-51.1z"/></g><g style="opacity:.5"><path class="b" d="m550 50.9l100-51 100 51v102.1l-100 51-100-51z"/><path class="b" d="m550 110.5l100-51 100 51v102.1l-100 51-100-51z"/><path class="b" d="m550 169.6l100-51 100 51v102l-100 51-100-51z"/><path class="b" d="m550 228.7l100-51.1 100 51.1v102l-100 51-100-51z"/><path class="b" d="m550 287.7l100-51 100 51v102.1l-100 51-100-51z"/><path class="b" d="m550 346.8l100-51 100 51v102l-100 51.1-100-51.1z"/></g><g style="opacity:.5"><path class="b" d="m225.7 50.9l99.9-51 100 51v102.1l-100 51-99.9-51z"/><path class="b" d="m225.7 110.5l99.9-51 100 51v102.1l-100 51-99.9-51z"/><path class="b" d="m225.7 169.6l99.9-51 100 51v102l-100 51-99.9-51z"/><path class="b" d="m225.7 228.7l99.9-51.1 100 51.1v102l-100 51-99.9-51z"/><path class="b" d="m225.7 287.7l99.9-51 100 51v102.1l-100 51-99.9-51z"/><path class="b" d="m225.7 346.8l99.9-51 100 51v102l-100 51.1-99.9-51.1z"/></g><g style="opacity:.5"><path class="b" d="m325.6 50.9l100-51 100 51v102.1l-100 51-100-51z"/><path class="b" d="m325.6 110.5l100-51 100 51v102.1l-100 51-100-51z"/><path class="b" d="m325.6 169.6l100-51 100 51v102l-100 51-100-51z"/><path class="b" d="m325.6 228.7l100-51.1 100 51.1v102l-100 51-100-51z"/><path class="b" d="m325.6 287.7l100-51 100 51v102.1l-100 51-100-51z"/><path class="b" d="m325.6 346.8l100-51 100 51v102l-100 51.1-100-51.1z"/></g><g style="opacity:.5"><path class="b" d="m425.6 50.9l100-51 99.9 51v102.1l-99.9 51-100-51z"/><path class="b" d="m425.6 110.5l100-51 99.9 51v102.1l-99.9 51-100-51z"/><path class="b" d="m425.6 169.6l100-51 99.9 51v102l-99.9 51-100-51z"/><path class="b" d="m425.6 228.7l100-51.1 99.9 51.1v102l-99.9 51-100-51z"/><path class="b" d="m425.6 287.7l100-51 99.9 51v102.1l-99.9 51-100-51z"/><path class="b" d="m425.6 346.8l100-51 99.9 51v102l-99.9 51.1-100-51.1z"/></g></svg>